<svg class="back_to_top" viewBox="0 0 1024 1024" xmlns="http://www.w3.org/2000/svg">
    <path d="M511.998 360.649c-41.727 0-75.676 33.949-75.676 75.676S470.271 512 511.998 512s75.676-33.949 75.676-75.676-33.949-75.675-75.676-75.675z m0 94.594c-10.434 0-18.919-8.49-18.919-18.919s8.485-18.919 18.919-18.919c10.434 0 18.919 8.49 18.919 18.919 0 10.43-8.485 18.919-18.919 18.919z" fill="#787878" p-id="3750"></path><path d="M717.441 580.327v-85.385c0-78.022-22.374-134.936-64.701-200.367-28.166-43.538-64.267-80.78-106.054-110.41-11.182-7.926-22.706-15.385-34.688-22.166-11.977 6.781-23.501 14.24-34.683 22.166-41.787 29.63-77.888 66.872-106.054 110.41-42.327 65.431-64.701 122.345-64.701 200.367v85.385l-37.353 75.195v87.066h485.587v-87.066l-37.353-75.195z m-19.404 105.504H325.963v-6.808l37.353-75.195V494.942c0-67.057 19.228-113.31 55.597-169.54 24.651-38.101 56.327-70.613 93.084-96.262 36.757 25.649 68.438 58.161 93.089 96.262 36.369 56.23 55.597 102.484 55.597 169.54v108.885l37.353 75.195v6.809zM512.002 799.165c-22.425-11.455-36.803-25.318-53.916-41.219h-80.692c35.565 41.364 72.105 75.075 122.673 98.521L512.002 862l11.935-5.533c50.563-23.445 87.098-57.154 122.664-98.521h-80.683c-17.112 15.9-31.491 29.764-53.916 41.219z"/>
</svg>
